<?xml version="1.0" encoding="UTF-8"?>
<svg id="Layer_2" data-name="Layer 2" xmlns="http://www.w3.org/2000/svg" viewBox="0 0 28 28">
  <defs>
    <style>
      .cls-1 {
        fill: #06c755;
      }

      .cls-1, .cls-2 {
        stroke-width: 0px;
      }

      .cls-2 {
        fill: #fff;
      }
    </style>
  </defs>
  <g id="LINE_LOGO" data-name="LINE LOGO">
    <g>
      <rect class="cls-1" x="6" y="6" width="16" height="16" rx="3.61" ry="3.61"/>
      <g>
        <path class="cls-2" d="m19.33,13.25c0-2.39-2.39-4.33-5.33-4.33s-5.33,1.94-5.33,4.33c0,2.14,1.9,3.93,4.46,4.27.17.04.41.11.47.26.05.13.03.35.02.48,0,0-.06.38-.08.46-.02.13-.11.53.46.29.57-.24,3.07-1.81,4.19-3.1h0c.77-.85,1.14-1.71,1.14-2.66h0Z"/>
        <g>
          <path class="cls-1" d="m17.56,14.62h-1.5c-.06,0-.1-.05-.1-.1h0v-2.33h0c0-.06.05-.1.1-.1h1.5c.06,0,.1.05.1.1v.38c0,.06-.05.1-.1.1h-1.02v.39h1.02c.06,0,.1.05.1.1v.38c0,.06-.05.1-.1.1h-1.02v.39h1.02c.06,0,.1.05.1.1v.38c0,.06-.05.1-.1.1h0Z"/>
          <path class="cls-1" d="m12.01,14.62c.06,0,.1-.05.1-.1v-.38c0-.06-.05-.1-.1-.1h-1.02v-1.85c0-.06-.05-.1-.1-.1h-.38c-.06,0-.1.05-.1.1v2.33h0c0,.06.05.1.1.1h1.5Z"/>
          <rect class="cls-1" x="12.44" y="12.09" width=".58" height="2.53" rx=".1" ry=".1"/>
          <path class="cls-1" d="m15.49,12.09h-.38c-.06,0-.1.05-.1.1v1.38l-1.07-1.44s0,0,0-.01h0s0,0,0,0c0,0,0,0,0,0,0,0,0,0,0,0,0,0,0,0,0,0,0,0,0,0,0,0,0,0,0,0,0,0,0,0,0,0,0,0h0s0,0,0,0c0,0,0,0,0,0,0,0,0,0,0,0,0,0,0,0,0,0,0,0,0,0,0,0,0,0,0,0,0,0,0,0,0,0,0,0h-.39c-.06,0-.1.05-.1.1v2.33c0,.06.05.1.1.1h.38c.06,0,.1-.05.1-.1v-1.38l1.07,1.44s.02.02.03.03c0,0,0,0,0,0,0,0,0,0,0,0,0,0,0,0,0,0,0,0,0,0,0,0s0,0,0,0c0,0,0,0,0,0,0,0,0,0,0,0h0s.02,0,.03,0h.38c.06,0,.1-.05.1-.1v-2.33c0-.06-.05-.1-.1-.1h0Z"/>
        </g>
      </g>
    </g>
  </g>
</svg>